<?xml version="1.0" encoding="UTF-8"?>
<svg width="36px" height="39px" viewBox="0 0 36 39" version="1.1" xmlns="http://www.w3.org/2000/svg" xmlns:xlink="http://www.w3.org/1999/xlink">
    <!-- Generator: Sketch 51.3 (57544) - http://www.bohemiancoding.com/sketch -->
    <title>Group 3</title>
    <desc>Created with Sketch.</desc>
    <defs></defs>
    <g id="Page-1" stroke="none" stroke-width="1" fill="none" fill-rule="evenodd">
        <g id="Group">
            <g id="Group-3">
                <path d="M14.697755,35.697755 C6.3337981,34.146934 0,26.8131359 0,18 C0,8.0588745 8.0588745,0 18,0 C27.9411255,0 36,8.0588745 36,18 C36,26.8131359 29.6662019,34.146934 21.302245,35.697755 L18,39 L14.697755,35.697755 Z" id="Combined-Shape" fill="#FFFFFF"></path>
                <g id="Logo-Tourbuzz" transform="translate(4.000000, 12.000000)" fill="#000000">
                    <g id="Group-3">
                        <g id="Group-2">
                            <path d="M5.88389806,11.4729021 L0.0202941894,11.4729021 C0.00908601812,11.4729021 0,11.4645866 0,11.4542908 L0,0.0186113419 C0,0.00833258159 0.0114455223,0 0.0202941894,0 L27.9797058,0 C27.990914,0 28,0.00831547318 28,0.0186113419 L28,11.4542908 C28,11.4645695 27.9885545,11.4729021 27.9797058,11.4729021 L25.8494353,11.4729021 C25.8825936,11.312265 25.9,11.146003 25.9,10.975743 C25.9,9.60287608 24.7682754,8.48994755 23.3722222,8.48994755 C21.9761691,8.48994755 20.8444444,9.60287608 20.8444444,10.975743 C20.8444444,11.146003 20.8618509,11.312265 20.8950092,11.4729021 L10.8383242,11.4729021 C10.8714825,11.312265 10.8888889,11.146003 10.8888889,10.975743 C10.8888889,9.60287608 9.75716422,8.48994755 8.36111111,8.48994755 C6.965058,8.48994755 5.83333332,9.60287608 5.83333332,10.975743 C5.83333332,11.146003 5.85073975,11.312265 5.88389806,11.4729021 Z M0.998958332,0.953087441 L1.01931424,4.18820682 L19.2475694,4.16460369 L23.3084202,6.93662415 L27.0678819,6.88344249 L27.1423177,0.896918023 L0.998958332,0.953087441 Z" id="Rectangle-4" fill-rule="nonzero"></path>
                            <circle id="Oval-2" cx="8.5" cy="11" r="1.5"></circle>
                            <circle id="Oval-2-Copy" cx="23.5" cy="11" r="1.5"></circle>
                        </g>
                    </g>
                </g>
            </g>
        </g>
    </g>
</svg>